<?xml version="1.0" encoding="UTF-8"?>
<svg id="Layer_1" data-name="Layer 1" xmlns="http://www.w3.org/2000/svg" viewBox="0 0 247.39 138.81">
  <defs>
    <style>
      .cls-1 {
        fill: #be2739;
      }

      .cls-2 {
        fill: #129c50;
      }

      .cls-3 {
        fill: #0059a9;
      }

      .cls-4 {
        fill: #f6ec3d;
      }
    </style>
  </defs>
  <path class="cls-3" d="M114.2,71.14v-10.45c-3.01,3.22-6.04,6.7-9.05,10.45h9.05Z"/>
  <path class="cls-1" d="M158.27,53.94l-15.3-19.15c-4.15,2.7-8.51,5.85-12.99,9.52v4.63l9.46,11.75v-16.2l20.23,25.08h8.06V29.44h-9.46v24.49Z"/>
  <path class="cls-3" d="M129.98,56.53l-5.07-6.3.05-.05c-2.23,1.99-4.48,4.11-6.74,6.37l11.73,14.6h11.8l-2.3-2.86-9.46-11.75Z"/>
  <path class="cls-1" d="M182.98,61.49v-8.23h14.2l1.27-1.93v-5.94h-15.47v-7.92h3.6c-4.55-3.19-8.9-5.83-12.94-8.03h-.31v40.14h13.73c0-.62.18-1.25.55-1.8l4.15-6.29h-8.77Z"/>
  <path class="cls-3" d="M196.32,61.49l-5.34,8.09h10.86l7.88-12.18c-2.18-2.26-4.34-4.39-6.49-6.39l-6.91,10.49Z"/>
  <path class="cls-2" d="M188.2,13.74c-5.74-.5-11.3-.4-16.65.18,1.79.54,3.57,1.13,5.34,1.77,7.07-1.77,11.31-1.96,11.31-1.96"/>
  <path class="cls-2" d="M129.98,39.54c1.77-1.38,3.52-2.7,5.25-3.94,1.83-1.31,3.65-2.55,5.43-3.7,6.16-4,12.03-7.12,17.4-9.56-3.39-1.25-6.47-2.2-9.16-2.91-7.27,2.76-13.94,6.25-19.92,10.01h-.15l-.15.19c-5.43,3.44-10.28,7.1-14.48,10.63v-10.82h-9.65v34.91c3.21-3.84,6.44-7.38,9.65-10.66.55-.56,1.1-1.11,1.65-1.66,4.76-4.72,9.5-8.87,14.13-12.5"/>
  <path class="cls-4" d="M218.15,46.33l2.09-3.16,9.07-13.72h-10.58l-5.1,7.87-2.03,3.13c-1.2-1.01-2.44-2.03-3.74-3.05-2.4-1.88-4.97-3.78-7.71-5.64-1.15-.78-2.34-1.55-3.54-2.31-5.97-3.76-12.64-7.25-19.92-10.01-1.91-.73-3.86-1.4-5.86-2.01-2.61-.81-5.29-1.51-8.03-2.09-2.85-.61-5.77-1.08-8.76-1.41-5.34-.58-10.9-.69-16.65-.18,0,0,4.24.19,11.31,1.96,1.84.46,3.87,1.03,6.07,1.73,2.48.79,5.17,1.74,8.03,2.9,1.53.61,3.1,1.29,4.73,2.02,4.22,1.91,8.74,4.25,13.47,7.1,3.85,2.32,7.84,4.98,11.92,8.03,3.28,2.45,6.62,5.16,9.99,8.15,7.39,6.55,14.93,14.45,22.35,23.96h14.69c-4.54-5.07-15.85-17.6-21.79-23.26"/>
  <path class="cls-4" d="M69.35,85.81H26.58c-2.82,0-5.11,2.06-5.11,4.6s2.29,4.6,5.11,4.6h42.77c2.82,0,5.12-2.06,5.12-4.6s-2.29-4.6-5.12-4.6"/>
  <path class="cls-4" d="M74.46,53.05c0-2.54-2.29-4.6-5.12-4.6H5.11c-2.82,0-5.11,2.06-5.11,4.6s2.29,4.6,5.11,4.6h64.23c2.82,0,5.12-2.06,5.12-4.6"/>
  <g>
    <path class="cls-4" d="M34.73,71.73c0-2.54-2.29-4.6-5.12-4.6h-10.98c-2.82,0-5.11,2.06-5.11,4.6s2.29,4.6,5.11,4.6h10.98c2.82,0,5.12-2.06,5.12-4.6"/>
    <path class="cls-4" d="M73.49,67.13h-27.15c-2.82,0-5.11,2.06-5.11,4.6s2.29,4.6,5.11,4.6h27.15c2.82,0,5.12-2.06,5.12-4.6s-2.29-4.6-5.12-4.6"/>
  </g>
  <path class="cls-2" d="M124.27,111.01c-6.42,0-13.94,6.22-16.8,13.9-2.85,7.68.03,13.9,6.45,13.9s13.94-6.22,16.79-13.9c2.86-7.68-.03-13.9-6.45-13.9M124.68,124.91c-1.37,3.69-4.98,6.68-8.07,6.68s-4.47-2.99-3.1-6.68c1.37-3.69,4.98-6.68,8.07-6.68s4.47,2.99,3.1,6.68"/>
  <path class="cls-3" d="M212.58,104.22h-120.15l9.47-13.82h87.2c2.38,0,4.39-1.47,4.95-3.46l7.04-10.62h-12.09l-3.51,4.87h-82.58l-13.47-42.24h7.24v-9.2h-10.18l-4.82-15.09c-.51-2.06-2.55-3.59-4.99-3.59h-24.93c-2.82,0-5.12,2.06-5.12,4.6s2.29,4.6,5.12,4.6h21.08l3.02,9.48H16.62c-2.82,0-5.11,2.06-5.11,4.6s2.29,4.6,5.11,4.6h62.2l14.73,46.17-14.58,21.28c-1.47,2.15-.73,4.97,1.66,6.3.84.46,1.76.69,2.67.68v.02h27.22c4.05-3.76,9.06-6.15,13.76-6.15,3.77,0,7.02,1.47,9.15,4.13.5.62.92,1.3,1.27,2.02h24.6c4.06-3.76,9.06-6.15,13.76-6.15,3.77,0,7.02,1.47,9.15,4.13.5.62.92,1.3,1.27,2.02h29.1c2.82,0,5.12-2.06,5.12-4.6s-2.29-4.6-5.12-4.6"/>
  <path class="cls-2" d="M173.06,111.01c-6.42,0-13.94,6.22-16.8,13.9-2.85,7.68.03,13.9,6.45,13.9s13.94-6.22,16.79-13.9c2.86-7.68-.03-13.9-6.45-13.9M173.46,124.91c-1.37,3.69-4.98,6.68-8.07,6.68s-4.47-2.99-3.1-6.68c1.37-3.69,4.98-6.68,8.07-6.68s4.47,2.99,3.1,6.68"/>
  <path class="cls-2" d="M240.41,7.71c-1.43.65-2.24,1.78-3.25,2.73-1.3,1.23-2.5,2.55-3.76,3.81-.2.2-.39.57-.78.41-.29-.12-.18-.46-.21-.71-.62-5.96,2.32-10.34,8.33-12.56,1.68-.62,3.42-1.04,5.2-1.34.62-.11,1.05-.02,1.15.63.74,4.82.27,9.39-3.54,13.19-1.8,1.8-4.14,2.88-6.77,3.43-.3.06-.67.26-.92-.02-.24-.27,0-.58.13-.83,1.35-2.65,2.71-5.3,4.07-7.94.13-.26.23-.53.35-.79"/>
  <path class="cls-2" d="M223.57,15.07c.21,1.34.43,2.67.61,4.01.05.37.26.87-.16,1.08-.43.22-.77-.21-1.09-.45-3.82-2.92-3.48-6.69-1.25-10.25.28-.45.65-.58,1.18-.28,3.83,2.14,6.36,5.41,4.52,9.74-.18.41-.21,1.08-.83,1.07-.51,0-.53-.64-.72-1.01-.67-1.32-1.33-2.64-1.99-3.96-.09.02-.18.04-.27.06"/>
  <path class="cls-2" d="M238.59,23.92c-1.47.28-2.93.58-4.4.83-.4.07-.94.3-1.21-.06-.27-.37.18-.71.42-1.01,2.96-3.63,7.17-3.6,11.28-1.85.52.22.69.54.4,1.04-2.1,3.58-5.55,6.09-10.48,4.74-.46-.13-1.22-.11-1.25-.67-.03-.46.67-.52,1.07-.72,1.41-.7,2.83-1.38,4.25-2.07-.03-.08-.06-.16-.08-.24"/>
  <polygon class="cls-4" points="218.65 29.54 237.33 11.28 229.24 29.54 218.65 29.54"/>
</svg>